<svg xmlns="http://www.w3.org/2000/svg" viewBox="0 -0.5 100 43" shape-rendering="crispEdges">
<metadata>Made with Pixels to Svg https://codepen.io/shshaw/pen/XbxvNj</metadata>
<path stroke="#000000" d="M6 0h92M5 1h1M98 1h1M5 2h1M98 2h1M5 3h1M98 3h1M5 4h1M98 4h1M2 5h4M94 5h4M1 6h1M94 6h1M1 7h1M94 7h1M1 8h1M94 8h4M1 9h1M98 9h1M2 10h4M98 10h1M5 11h1M98 11h1M5 12h1M50 12h1M98 12h1M2 13h4M50 13h1M94 13h5M1 14h1M50 14h1M94 14h1M1 15h1M50 15h1M94 15h1M1 16h1M50 16h1M94 16h1M1 17h1M50 17h1M94 17h4M2 18h4M50 18h1M98 18h1M5 19h1M50 19h1M98 19h1M5 20h1M42 20h17M98 20h1M2 21h4M50 21h1M98 21h1M1 22h1M50 22h1M94 22h4M1 23h1M50 23h1M94 23h1M1 24h1M50 24h1M94 24h1M1 25h1M50 25h1M94 25h4M2 26h4M50 26h1M98 26h1M5 27h1M50 27h1M98 27h1M5 28h1M50 28h1M98 28h1M2 29h4M98 29h1M1 30h1M94 30h4M1 31h1M94 31h1M1 32h1M94 32h1M1 33h1M94 33h4M2 34h4M98 34h1M5 35h1M98 35h1M5 36h1M98 36h1M2 37h4M98 37h1M1 38h1M94 38h4M1 39h1M94 39h1M1 40h1M94 40h1M1 41h1M94 41h1M2 42h92" />
</svg>