<svg xmlns="http://www.w3.org/2000/svg" viewBox="0 -0.5 100 120" shape-rendering="crispEdges">
<metadata>Made with Pixels to Svg https://codepen.io/shshaw/pen/XbxvNj</metadata>
<path stroke="#a80f0f" d="M0 0h4M15 0h10M40 0h1M42 0h2M45 0h1M66 0h7M74 0h1M87 0h6M94 0h1M0 1h4M15 1h10M42 1h3M65 1h2M68 1h5M87 1h7M0 2h3M15 2h9M40 2h4M45 2h1M65 2h1M67 2h6M74 2h1M86 2h10M0 3h4M16 3h9M41 3h5M64 3h11M86 3h11M0 4h3M15 4h10M40 4h1M42 4h2M66 4h9M89 4h7M0 5h3M16 5h8M42 5h2M67 5h7M88 5h7M0 6h3M16 6h6M23 6h1M40 6h1M42 6h3M68 6h6M88 6h8M0 7h4M16 7h8M41 7h3M65 7h1M67 7h6M88 7h7M0 8h4M15 8h9M40 8h4M67 8h6M74 8h1M88 8h1M90 8h5M96 8h1M0 9h4M15 9h9M40 9h3M66 9h1M68 9h6M88 9h7M97 9h1M0 10h3M15 10h8M40 10h4M68 10h7M89 10h2M92 10h3M0 11h4M15 11h9M42 11h2M67 11h8M88 11h7M0 12h5M15 12h8M41 12h2M65 12h9M87 12h8M0 13h4M15 13h8M40 13h1M42 13h1M67 13h8M87 13h9M0 14h3M15 14h9M66 14h7M88 14h7M0 15h3M15 15h1M17 15h6M66 15h9M89 15h8M0 16h4M15 16h8M41 16h1M66 16h1M68 16h6M87 16h1M89 16h1M91 16h4M0 17h4M15 17h9M41 17h1M67 17h1M69 17h5M88 17h4M93 17h2M96 17h1M0 18h5M13 18h1M16 18h8M67 18h6M89 18h7M0 19h4M15 19h8M41 19h1M68 19h4M73 19h2M89 19h6M0 20h4M15 20h8M41 20h1M67 20h7M88 20h4M93 20h2M0 21h4M15 21h8M67 21h6M89 21h6M0 22h4M16 22h7M68 22h6M89 22h3M93 22h1M0 23h4M15 23h8M67 23h6M89 23h7M0 24h3M16 24h7M66 24h9M89 24h6M0 25h4M16 25h7M67 25h1M69 25h5M90 25h2M93 25h3M0 26h4M16 26h8M68 26h5M88 26h8M0 27h3M6 27h1M16 27h4M21 27h2M67 27h7M89 27h1M91 27h5M0 28h4M16 28h7M67 28h7M91 28h6M0 29h4M16 29h6M23 29h1M67 29h3M71 29h3M90 29h7M0 30h4M15 30h1M17 30h7M67 30h5M92 30h5M0 31h4M16 31h8M67 31h6M91 31h5M0 32h3M16 32h7M66 32h7M91 32h5M0 33h4M16 33h7M67 33h7M91 33h6M0 34h4M16 34h7M67 34h7M91 34h5M0 35h3M16 35h8M66 35h8M92 35h4M0 36h3M17 36h7M66 36h7M91 36h5M0 37h2M16 37h6M23 37h1M67 37h6M91 37h1M93 37h3M0 38h3M17 38h6M67 38h6M90 38h2M94 38h1M1 39h2M17 39h6M66 39h6M90 39h6M0 40h3M17 40h7M67 40h6M89 40h1M91 40h2M95 40h1M0 41h1M2 41h1M16 41h1M18 41h7M66 41h1M68 41h4M89 41h2M93 41h2M0 42h3M16 42h9M66 42h7M90 42h1M92 42h2M0 43h1M2 43h1M17 43h8M66 43h2M69 43h3M89 43h2M0 44h4M16 44h5M22 44h2M67 44h5M89 44h2M92 44h2M0 45h4M18 45h7M67 45h5M89 45h5M0 46h3M17 46h1M19 46h5M67 46h4M72 46h1M91 46h2M94 46h1M0 47h3M16 47h2M19 47h4M67 47h5M91 47h1M94 47h1M0 48h3M16 48h2M19 48h1M66 48h1M68 48h1M70 48h2M90 48h1M92 48h3M0 49h3M17 49h5M66 49h5M72 49h1M92 49h2M0 50h1M16 50h3M66 50h7M90 50h5M0 51h3M16 51h5M66 51h6M90 51h2M94 51h1M0 52h3M17 52h6M65 52h5M90 52h3M0 53h2M3 53h1M16 53h7M67 53h1M69 53h3M90 53h5M0 54h3M17 54h5M68 54h3M90 54h5M0 55h1M2 55h1M17 55h1M19 55h1M21 55h2M66 55h6M90 55h5M0 56h4M17 56h2M67 56h6M91 56h4M0 57h3M17 57h4M66 57h5M72 57h1M91 57h2M0 58h4M18 58h2M66 58h6M91 58h1M93 58h2M1 59h2M17 59h1M19 59h3M67 59h5M90 59h5M0 60h3M16 60h4M66 60h6M90 60h4M0 61h3M16 61h1M18 61h1M66 61h1M68 61h4M90 61h2M93 61h2M1 62h1M16 62h5M67 62h5M90 62h5M0 63h4M17 63h2M20 63h1M67 63h5M90 63h6M0 64h1M2 64h1M18 64h1M67 64h5M90 64h5M0 65h3M16 65h3M67 65h4M89 65h7M0 66h3M16 66h4M67 66h5M90 66h6M0 67h2M16 67h4M67 67h4M89 67h7M0 68h3M17 68h3M69 68h2M72 68h1M89 68h7M0 69h3M17 69h4M69 69h3M89 69h7M0 70h4M18 70h2M22 70h1M69 70h3M89 70h6M0 71h4M16 71h1M18 71h2M21 71h1M69 71h3M90 71h5M0 72h4M16 72h7M70 72h2M91 72h2M0 73h3M18 73h4M70 73h2M0 74h3M19 74h2M70 74h1M0 75h1" />
<path stroke="#c62828" d="M4 0h2M13 0h2M31 0h3M95 0h5M4 1h2M13 1h2M31 1h3M95 1h5M3 2h4M12 2h3M31 2h4M96 2h4M4 3h2M12 3h4M31 3h3M58 3h1M97 3h3M3 4h4M12 4h3M31 4h4M96 4h4M3 5h3M12 5h4M32 5h3M58 5h2M95 5h5M3 6h4M8 6h1M12 6h4M31 6h4M59 6h1M97 6h3M4 7h3M12 7h4M32 7h3M38 7h1M58 7h1M95 7h5M4 8h2M13 8h2M32 8h2M97 8h3M4 9h3M12 9h3M32 9h3M95 9h2M98 9h2M3 10h3M12 10h3M32 10h3M95 10h5M4 11h3M13 11h2M31 11h3M95 11h5M5 12h1M13 12h2M31 12h4M96 12h4M4 13h2M13 13h2M31 13h3M96 13h4M3 14h4M13 14h2M32 14h4M95 14h5M3 15h3M12 15h3M16 15h1M32 15h4M60 15h1M97 15h3M4 16h2M12 16h3M31 16h4M59 16h1M96 16h4M4 17h3M12 17h3M31 17h5M95 17h1M97 17h3M5 18h1M14 18h2M32 18h4M96 18h4M4 19h3M14 19h1M31 19h5M95 19h5M4 20h2M13 20h2M32 20h3M95 20h5M4 21h3M13 21h2M31 21h5M95 21h5M4 22h3M13 22h3M31 22h5M95 22h5M4 23h3M13 23h2M31 23h2M34 23h2M96 23h4M3 24h4M12 24h1M14 24h2M31 24h4M95 24h5M4 25h3M13 25h3M32 25h3M59 25h1M96 25h4M4 26h4M13 26h3M31 26h4M59 26h1M76 26h1M85 26h1M96 26h4M3 27h3M7 27h2M12 27h4M26 27h1M31 27h1M33 27h3M76 27h1M84 27h2M97 27h3M4 28h3M11 28h5M26 28h1M31 28h4M77 28h1M84 28h2M97 28h3M4 29h4M11 29h5M26 29h1M31 29h1M33 29h3M76 29h1M85 29h1M97 29h3M4 30h3M12 30h3M16 30h1M26 30h2M32 30h3M76 30h2M83 30h1M85 30h1M99 30h1M4 31h3M12 31h4M25 31h3M33 31h2M76 31h2M84 31h1M96 31h4M3 32h5M11 32h3M26 32h1M32 32h3M77 32h1M84 32h2M96 32h4M4 33h3M10 33h1M12 33h2M26 33h1M28 33h1M33 33h2M76 33h1M84 33h3M97 33h2M4 34h5M13 34h3M26 34h2M32 34h2M76 34h1M84 34h2M96 34h1M98 34h2M3 35h6M10 35h5M26 35h2M29 35h2M33 35h2M76 35h2M83 35h3M96 35h3M3 36h1M5 36h3M11 36h5M26 36h2M32 36h3M76 36h1M84 36h2M96 36h2M99 36h1M2 37h2M5 37h3M12 37h3M26 37h3M32 37h3M76 37h2M83 37h4M96 37h3M3 38h1M5 38h2M12 38h4M26 38h3M30 38h1M32 38h1M76 38h2M80 38h1M82 38h1M84 38h3M95 38h4M5 39h2M12 39h3M26 39h2M31 39h1M33 39h1M76 39h1M78 39h1M80 39h2M84 39h2M96 39h3M5 40h2M8 40h1M12 40h3M25 40h4M34 40h1M76 40h2M83 40h4M93 40h2M96 40h3M5 41h2M13 41h3M26 41h2M33 41h1M76 41h3M84 41h2M95 41h3M5 42h2M11 42h5M26 42h2M76 42h2M84 42h3M94 42h4M6 43h1M8 43h1M11 43h1M13 43h3M26 43h1M34 43h1M84 43h3M92 43h2M95 43h3M5 44h2M12 44h4M26 44h1M34 44h1M76 44h2M83 44h4M94 44h5M5 45h1M13 45h2M26 45h2M29 45h1M33 45h1M77 45h2M84 45h2M94 45h4M5 46h2M13 46h1M25 46h3M34 46h2M76 46h2M83 46h4M93 46h1M95 46h4M5 47h1M12 47h3M26 47h2M31 47h1M34 47h1M76 47h2M83 47h4M93 47h1M95 47h4M5 48h2M12 48h3M25 48h3M33 48h2M76 48h2M83 48h4M95 48h3M5 49h2M12 49h3M26 49h3M33 49h2M76 49h2M84 49h2M94 49h4M6 50h1M12 50h3M25 50h3M33 50h3M77 50h1M81 50h1M83 50h4M95 50h2M98 50h1M5 51h2M12 51h3M25 51h1M33 51h3M76 51h3M83 51h3M93 51h1M95 51h3M5 52h2M12 52h3M27 52h1M33 52h3M78 52h1M84 52h2M93 52h3M97 52h2M5 53h1M12 53h3M26 53h2M34 53h1M76 53h1M84 53h2M95 53h4M13 54h1M25 54h2M33 54h2M77 54h1M79 54h1M84 54h2M95 54h3M5 55h1M8 55h1M11 55h4M26 55h2M33 55h2M80 55h1M84 55h3M95 55h4M5 56h3M11 56h1M13 56h2M26 56h1M33 56h2M76 56h2M79 56h1M83 56h3M95 56h3M5 57h2M10 57h1M13 57h2M25 57h3M33 57h2M83 57h1M85 57h2M93 57h6M5 58h2M9 58h1M12 58h2M25 58h2M76 58h1M84 58h3M95 58h3M5 59h1M13 59h2M25 59h2M33 59h1M81 59h1M83 59h4M95 59h3M4 60h3M13 60h2M25 60h3M76 60h1M83 60h4M94 60h5M5 61h3M13 61h1M26 61h1M76 61h2M79 61h1M83 61h3M95 61h3M5 62h2M13 62h2M26 62h1M76 62h2M83 62h4M95 62h3M5 63h2M13 63h1M25 63h2M76 63h3M84 63h3M96 63h3M4 64h1M6 64h1M11 64h4M25 64h1M76 64h1M80 64h1M84 64h3M95 64h3M5 65h2M13 65h2M26 65h1M75 65h1M83 65h4M96 65h2M4 66h2M75 66h2M84 66h3M96 66h2M5 67h2M12 67h2M26 67h1M75 67h1M84 67h3M96 67h3M5 68h2M12 68h1M26 68h1M84 68h3M96 68h3M5 69h1M26 69h1M75 69h4M84 69h2M96 69h3M5 70h2M26 70h1M76 70h1M83 70h4M95 70h3M4 71h2M26 71h1M75 71h3M83 71h4M95 71h3M5 72h2M25 72h2M75 72h2M83 72h4M93 72h6M4 73h2M14 73h1M26 73h1M75 73h2M83 73h4M94 73h4M5 74h1M13 74h1M25 74h2M75 74h3M83 74h3M95 74h2M4 75h2M13 75h2M26 75h1M75 75h4M84 75h2M5 76h2M12 76h2M26 76h2M76 76h3M84 76h1M6 77h3M12 77h1M27 77h2M78 77h2M7 78h1" />
<path stroke="#d32f2f" d="M6 0h7M27 0h4M54 0h3M76 0h8M6 1h7M27 1h4M54 1h2M57 1h2M76 1h7M7 2h5M26 2h5M55 2h2M77 2h6M6 3h6M27 3h4M55 3h3M77 3h6M7 4h5M27 4h4M55 4h3M77 4h6M6 5h6M27 5h5M55 5h3M76 5h8M7 6h1M9 6h3M27 6h4M55 6h3M76 6h8M96 6h1M7 7h5M27 7h5M55 7h3M77 7h7M6 8h7M26 8h6M56 8h1M76 8h8M95 8h1M7 9h5M27 9h5M56 9h2M76 9h7M6 10h6M27 10h5M56 10h1M78 10h5M7 11h6M27 11h4M57 11h1M76 11h8M6 12h7M27 12h3M56 12h2M76 12h8M95 12h1M6 13h7M27 13h4M57 13h1M77 13h7M7 14h6M26 14h6M57 14h1M77 14h6M6 15h6M27 15h5M77 15h7M6 16h6M27 16h4M58 16h1M77 16h7M95 16h1M7 17h5M27 17h4M76 17h8M6 18h7M27 18h5M58 18h1M76 18h7M7 19h7M27 19h4M76 19h7M6 20h7M27 20h5M58 20h1M77 20h6M7 21h6M27 21h4M78 21h6M7 22h6M27 22h4M77 22h7M7 23h6M27 23h4M33 23h1M77 23h7M7 24h5M13 24h1M26 24h5M77 24h7M7 25h6M27 25h5M78 25h7M8 26h5M26 26h5M77 26h8M9 27h3M27 27h4M32 27h1M77 27h7M96 27h1M7 28h4M27 28h4M78 28h6M8 29h3M27 29h4M32 29h1M77 29h7M7 30h5M28 30h4M78 30h5M97 30h2M7 31h5M28 31h5M78 31h6M8 32h3M27 32h5M78 32h6M7 33h3M11 33h1M27 33h1M29 33h4M77 33h6M99 33h1M9 34h4M28 34h4M77 34h7M97 34h1M9 35h1M28 35h1M31 35h2M78 35h5M99 35h1M8 36h3M28 36h4M77 36h7M98 36h1M8 37h4M29 37h3M78 37h5M99 37h1M7 38h5M29 38h1M31 38h1M78 38h2M81 38h1M83 38h1M99 38h1M7 39h5M28 39h3M32 39h1M77 39h1M79 39h1M82 39h2M99 39h1M7 40h1M9 40h3M29 40h5M78 40h5M99 40h1M7 41h6M28 41h5M79 41h4M7 42h4M28 42h6M78 42h6M98 42h2M7 43h1M9 43h2M12 43h1M27 43h7M77 43h7M99 43h1M7 44h5M27 44h7M78 44h5M99 44h1M6 45h7M28 45h1M30 45h3M79 45h5M98 45h2M7 46h6M28 46h6M78 46h5M99 46h1M6 47h6M28 47h3M32 47h2M78 47h5M99 47h1M7 48h5M28 48h5M78 48h5M98 48h2M7 49h5M29 49h4M78 49h6M98 49h2M7 50h5M28 50h5M78 50h3M82 50h1M97 50h1M99 50h1M7 51h5M27 51h6M79 51h4M98 51h2M7 52h5M28 52h5M77 52h1M79 52h5M99 52h1M7 53h5M28 53h5M77 53h7M6 54h7M27 54h6M78 54h1M80 54h4M99 54h1M6 55h2M9 55h2M28 55h5M77 55h3M81 55h3M99 55h1M8 56h3M12 56h1M27 56h6M78 56h1M80 56h3M98 56h2M7 57h3M11 57h2M28 57h5M78 57h5M99 57h1M7 58h2M10 58h2M27 58h7M78 58h6M99 58h1M7 59h6M27 59h6M78 59h3M82 59h1M98 59h2M7 60h6M28 60h6M77 60h6M99 60h1M8 61h5M27 61h7M78 61h1M80 61h3M99 61h1M7 62h6M27 62h7M78 62h5M98 62h2M7 63h6M27 63h6M79 63h5M99 63h1M7 64h4M27 64h6M78 64h2M81 64h3M98 64h2M7 65h6M27 65h6M77 65h6M98 65h2M7 66h6M27 66h5M77 66h7M98 66h2M7 67h5M27 67h5M77 67h7M99 67h1M7 68h5M27 68h5M78 68h6M99 68h1M6 69h5M27 69h4M79 69h5M99 69h1M7 70h5M27 70h4M77 70h6M98 70h2M6 71h5M12 71h1M27 71h3M78 71h5M98 71h2M7 72h6M27 72h3M77 72h6M99 72h1M6 73h7M27 73h3M77 73h6M98 73h2M6 74h6M27 74h3M78 74h5M6 75h6M27 75h3M79 75h5M7 76h5M28 76h2M79 76h4M9 77h1M80 77h1" />
<path stroke="#b30e0e" d="M25 0h2M34 0h6M57 0h6M25 1h2M34 1h7M56 1h1M59 1h4M24 2h2M35 2h5M57 2h6M25 3h2M34 3h7M59 3h4M25 4h1M35 4h5M58 4h5M24 5h2M35 5h6M60 5h2M22 6h1M24 6h2M35 6h5M58 6h1M60 6h2M85 6h1M24 7h3M35 7h3M39 7h2M59 7h5M84 7h1M24 8h2M34 8h6M57 8h7M84 8h1M24 9h2M35 9h5M58 9h6M83 9h2M23 10h4M35 10h5M57 10h7M83 10h2M24 11h3M34 11h8M58 11h6M84 11h1M23 12h4M35 12h6M58 12h6M84 12h1M23 13h4M34 13h6M41 13h1M58 13h6M84 13h1M24 14h2M36 14h6M58 14h6M83 14h2M23 15h3M36 15h5M58 15h2M61 15h3M84 15h1M23 16h4M35 16h6M60 16h4M84 16h1M24 17h3M36 17h5M58 17h4M64 17h1M84 17h1M24 18h3M36 18h6M59 18h3M83 18h1M23 19h4M36 19h5M59 19h4M64 19h1M83 19h1M23 20h4M36 20h5M59 20h3M83 20h2M23 21h4M36 21h5M59 21h3M84 21h1M23 22h3M36 22h4M59 22h2M62 22h1M84 22h1M23 23h3M36 23h4M59 23h4M84 23h1M23 24h3M35 24h5M59 24h4M64 24h1M23 25h4M35 25h5M60 25h5M85 25h1M24 26h2M35 26h5M60 26h1M62 26h2M65 26h1M86 26h2M20 27h1M23 27h3M36 27h4M59 27h4M65 27h1M86 27h3M90 27h1M23 28h3M35 28h4M59 28h3M63 28h1M86 28h4M22 29h1M24 29h2M36 29h3M59 29h4M84 29h1M86 29h4M24 30h1M35 30h5M60 30h4M84 30h1M86 30h3M90 30h2M24 31h1M35 31h4M60 31h3M85 31h5M23 32h2M35 32h4M60 32h2M86 32h3M90 32h1M23 33h3M35 33h4M59 33h4M88 33h2M23 34h3M34 34h5M59 34h4M86 34h1M24 35h2M35 35h4M59 35h4M86 35h4M24 36h2M35 36h4M60 36h1M62 36h1M86 36h3M90 36h1M22 37h1M24 37h2M35 37h4M60 37h1M62 37h2M90 37h1M23 38h2M35 38h4M60 38h1M62 38h2M89 38h1M23 39h3M34 39h4M61 39h1M24 40h1M35 40h3M62 40h1M34 41h4M62 41h2M35 42h3M63 42h1M25 43h1M37 43h1M61 43h1M21 44h1M24 44h1M63 44h1M25 45h1M35 45h2M63 45h1M64 46h2M18 47h1M23 47h1M35 47h2M63 47h1M20 48h1M35 48h1M64 48h1M19 50h2M23 50h1M73 50h1M21 51h1M72 51h1M25 52h1M74 52h1M23 53h1M74 53h2M22 54h1M24 54h1M71 54h2M75 54h2M87 54h1M20 55h1M73 55h1M75 55h2M87 55h1M19 56h3M25 56h1M74 56h1M86 56h3M21 57h2M75 57h1M77 57h1M87 57h1M20 58h1M23 58h1M75 58h1M77 58h1M87 58h1M22 59h2M72 59h2M76 59h2M87 59h1M21 60h4M73 60h3M87 60h1M19 61h3M23 61h2M72 61h4M86 61h2M21 62h3M75 62h1M87 62h1M21 63h4M75 63h1M87 63h1M19 64h4M24 64h1M74 64h1M77 64h1M87 64h1M19 65h6M71 65h1M73 65h2M76 65h1M87 65h1M13 66h1M20 66h4M72 66h3M87 66h1M14 67h1M20 67h5M71 67h1M73 67h2M76 67h1M87 67h1M13 68h1M20 68h2M23 68h2M71 68h1M75 68h3M87 68h1M11 69h4M16 69h1M21 69h3M25 69h1M72 69h3M12 70h3M16 70h2M20 70h2M24 70h1M72 70h1M74 70h2M11 71h1M13 71h3M17 71h1M20 71h1M22 71h1M74 71h1M13 72h1M15 72h1M13 73h1M15 73h2M12 74h1M14 74h2M12 75h1" />
<path stroke="#b71c1c" d="M41 0h1M44 0h1M63 0h3M73 0h1M75 0h1M84 0h3M93 0h1M41 1h1M45 1h1M63 1h2M67 1h1M74 1h2M83 1h4M94 1h1M44 2h1M63 2h2M66 2h1M73 2h1M75 2h2M83 2h3M63 3h1M75 3h2M83 3h3M26 4h1M41 4h1M63 4h3M75 4h2M83 4h6M26 5h1M41 5h1M62 5h5M74 5h2M84 5h4M26 6h1M41 6h1M62 6h6M75 6h1M84 6h1M86 6h2M64 7h1M66 7h1M73 7h4M85 7h3M64 8h3M85 8h3M89 8h1M26 9h1M43 9h1M64 9h2M67 9h1M75 9h1M85 9h3M64 10h4M75 10h3M85 10h4M91 10h1M64 11h3M75 11h1M85 11h3M30 12h1M64 12h1M74 12h2M85 12h2M64 13h3M75 13h2M85 13h2M64 14h2M75 14h2M85 14h3M26 15h1M41 15h1M64 15h2M76 15h1M85 15h4M64 16h2M67 16h1M75 16h2M85 16h2M88 16h1M90 16h1M62 17h2M65 17h2M75 17h1M85 17h3M92 17h1M62 18h5M74 18h2M84 18h5M58 19h1M63 19h1M65 19h3M72 19h1M75 19h1M84 19h5M35 20h1M62 20h5M75 20h2M85 20h3M92 20h1M62 21h5M75 21h3M85 21h4M26 22h1M61 22h1M63 22h5M74 22h3M85 22h4M92 22h1M94 22h1M26 23h1M63 23h4M74 23h3M85 23h4M63 24h1M65 24h1M75 24h2M84 24h5M65 25h2M74 25h4M86 25h4M92 25h1M61 26h1M64 26h1M66 26h2M74 26h2M63 27h2M66 27h1M74 27h2M62 28h1M64 28h3M74 28h3M90 28h1M63 29h4M74 29h2M25 30h1M64 30h3M74 30h2M89 30h1M63 31h4M73 31h3M90 31h1M14 32h2M25 32h1M62 32h4M73 32h4M89 32h1M14 33h2M63 33h4M74 33h2M83 33h1M87 33h1M90 33h1M63 34h4M74 34h2M87 34h4M15 35h1M63 35h3M74 35h2M90 35h2M4 36h1M16 36h1M61 36h1M63 36h3M73 36h3M89 36h1M4 37h1M15 37h1M61 37h1M64 37h3M73 37h3M87 37h3M92 37h1M4 38h1M16 38h1M25 38h1M33 38h2M61 38h1M64 38h3M73 38h3M87 38h2M92 38h2M0 39h1M3 39h2M15 39h2M62 39h4M72 39h4M86 39h4M3 40h2M15 40h2M61 40h1M63 40h4M73 40h3M87 40h2M90 40h1M1 41h1M3 41h2M17 41h1M25 41h1M61 41h1M64 41h2M67 41h1M72 41h4M83 41h1M86 41h3M91 41h2M98 41h2M3 42h2M25 42h1M34 42h1M61 42h2M64 42h2M73 42h3M87 42h3M91 42h1M1 43h1M3 43h3M16 43h1M35 43h2M62 43h4M68 43h1M72 43h5M87 43h2M91 43h1M94 43h1M98 43h1M4 44h1M25 44h1M35 44h2M62 44h1M64 44h3M72 44h4M87 44h2M91 44h1M4 45h1M15 45h3M34 45h1M62 45h1M64 45h3M72 45h5M86 45h3M3 46h2M14 46h3M18 46h1M24 46h1M36 46h1M62 46h2M66 46h1M71 46h1M73 46h3M87 46h4M3 47h2M15 47h1M24 47h2M64 47h3M72 47h4M87 47h4M92 47h1M3 48h2M15 48h1M18 48h1M21 48h4M36 48h1M63 48h1M65 48h1M67 48h1M69 48h1M72 48h4M87 48h3M91 48h1M3 49h2M15 49h2M22 49h4M35 49h1M63 49h3M71 49h1M73 49h3M86 49h6M1 50h5M15 50h1M21 50h2M24 50h1M63 50h3M74 50h3M87 50h3M3 51h2M15 51h1M22 51h3M26 51h1M64 51h2M73 51h3M86 51h4M92 51h1M3 52h2M15 52h2M23 52h2M26 52h1M64 52h1M70 52h4M75 52h2M86 52h4M96 52h1M2 53h1M4 53h1M6 53h1M15 53h1M24 53h2M33 53h1M64 53h3M68 53h1M72 53h2M86 53h4M99 53h1M3 54h3M14 54h3M23 54h1M64 54h4M73 54h2M86 54h1M88 54h2M98 54h1M1 55h1M3 55h2M15 55h2M18 55h1M23 55h3M64 55h2M72 55h1M74 55h1M88 55h2M4 56h1M15 56h2M22 56h3M66 56h1M73 56h1M75 56h1M89 56h2M3 57h2M15 57h2M23 57h2M71 57h1M73 57h2M76 57h1M84 57h1M88 57h3M4 58h1M14 58h4M21 58h2M24 58h1M34 58h1M72 58h3M88 58h3M92 58h1M98 58h1M0 59h1M3 59h2M6 59h1M15 59h2M18 59h1M24 59h1M74 59h2M88 59h2M3 60h1M15 60h1M20 60h1M72 60h1M88 60h2M3 61h2M14 61h2M17 61h1M22 61h1M25 61h1M88 61h2M92 61h1M98 61h1M0 62h1M2 62h3M15 62h1M24 62h2M72 62h3M88 62h2M4 63h1M14 63h3M19 63h1M72 63h3M88 63h2M1 64h1M3 64h1M5 64h1M15 64h3M23 64h1M26 64h1M72 64h2M75 64h1M88 64h2M3 65h2M15 65h1M25 65h1M72 65h1M88 65h1M3 66h1M6 66h1M14 66h2M24 66h3M88 66h2M2 67h3M15 67h1M25 67h1M72 67h1M88 67h1M3 68h2M14 68h3M22 68h1M25 68h1M73 68h2M88 68h1M3 69h2M15 69h1M24 69h1M86 69h3M4 70h1M15 70h1M23 70h1M25 70h1M73 70h1M87 70h2M23 71h3M72 71h2M87 71h3M4 72h1M14 72h1M23 72h2M72 72h3M87 72h4M3 73h1M17 73h1M22 73h4M74 73h1M87 73h3M3 74h2M21 74h4M86 74h2M24 75h2M86 75h1" />
<path stroke="#d38055" d="M46 0h3M46 1h3M46 2h3M46 3h1M45 4h2M45 5h2M45 6h1M44 7h2M44 8h1M44 9h1M44 10h2M44 11h2M44 12h1M45 13h1M47 13h1M45 14h1M47 14h1M45 15h1M47 15h1M46 16h2M44 17h1M44 18h1M44 19h1M46 19h1M44 20h1M46 20h1M44 21h1M46 21h1M44 22h1M44 23h1M44 25h1M44 26h1M44 27h1M44 28h1M44 29h1M44 30h1M45 31h1M43 33h1M44 34h2M42 35h1M44 35h2M42 36h1M44 36h1M44 37h1M42 38h1M44 38h1M44 39h1M42 40h1M43 41h1M43 42h2M42 43h2M42 44h1M40 45h1M42 45h1M42 46h1M40 47h1M42 47h1M42 48h1M42 53h1M40 54h1M42 54h1M40 55h1M42 55h1M40 56h1M42 56h1M42 57h1M42 58h1M42 59h1M42 60h1M42 61h1M40 63h1M40 64h1M65 64h1M40 65h1M42 65h1M40 66h1M42 66h1M40 67h2M40 68h2M40 69h1M42 69h1M67 70h1M45 71h1M67 71h1M40 72h2M45 72h1M67 72h1M39 73h1M65 73h1M39 74h1M66 74h1" />
<path stroke="#da865b" d="M49 0h1M49 1h1M49 2h1M52 2h1M51 4h1M49 5h2M49 6h2M46 7h1M49 7h2M45 8h2M48 8h3M45 9h1M48 9h3M48 10h3M46 11h1M48 11h3M45 12h1M47 12h2M48 13h1M48 14h1M51 14h1M46 17h2M51 17h2M46 18h1M48 18h1M49 19h1M51 19h1M49 21h1M49 22h1M48 38h1M58 42h2M59 43h2M59 46h1M62 47h1M40 49h1M61 49h2M62 50h1M62 51h1M61 52h1M60 53h3M60 54h1M62 54h1M37 55h1M61 55h1M37 56h1M59 56h1M61 56h2M40 57h1M59 57h2M59 58h4M58 59h3M62 59h1M36 60h2M47 60h1M59 60h3M46 61h1M60 61h1M59 62h1M61 62h1M63 62h3M45 63h1M63 63h2M63 64h2M36 65h2M56 65h1M62 65h1M64 65h2M47 66h1M65 66h1M46 67h1M58 67h1M59 68h1M62 68h2M47 69h1M59 70h2M63 70h1M35 71h1M46 71h1M46 72h1M59 72h1M61 72h1M64 72h1M59 73h2" />
<path stroke="#da865a" d="M50 0h1M50 1h1M48 3h3M47 4h4M48 5h1M46 6h1M48 6h1M48 7h1M51 7h1M47 8h1M47 9h1M53 12h1M44 13h1M49 13h1M49 14h2M49 15h3M48 16h4M49 17h2M49 18h2M47 19h2M50 19h1M49 20h1M47 21h2M50 27h1M50 29h1M49 38h1M48 39h2M50 40h1M49 41h2M48 42h2M48 43h2M48 44h1M38 47h1M37 48h1M39 48h1M38 49h2M50 49h1M56 49h1M37 50h2M38 51h1M49 51h1M37 52h2M49 52h1M37 53h1M58 53h1M37 54h2M48 54h1M57 54h1M38 55h1M48 55h1M56 55h1M48 56h2M63 56h1M36 57h2M48 57h1M63 57h1M37 58h1M48 58h1M57 58h1M63 58h1M37 59h2M57 59h1M58 60h1M62 60h2M57 61h3M61 61h1M63 61h1M36 62h1M57 62h1M60 62h1M36 63h1M58 63h4M38 64h1M59 64h2M59 65h3M58 66h7M60 67h2M63 67h1M58 68h1M64 68h1M59 69h3M64 69h1M37 70h1M58 70h1M61 70h2M36 71h1M59 71h1M37 73h1M64 73h1M36 74h1" />
<path stroke="#e99065" d="M51 0h2M51 1h2M51 2h1M53 2h2M51 3h4M52 4h3M51 5h4M51 6h2M52 7h1M54 8h1M54 9h2M52 10h2M55 10h1M52 11h2M55 11h1M54 12h1M52 13h2M53 16h2M53 17h3M51 18h5M52 19h4M53 20h3M53 21h2M52 22h3M54 23h3M52 24h1M54 24h3M52 25h5M54 26h3M54 27h2M54 28h2M54 29h2M54 30h2M52 31h2M55 31h1M56 32h1M54 34h2M54 35h1M51 36h1M54 36h1M54 37h1M54 38h2M54 39h3M54 40h2M53 41h3M55 42h1M55 43h2M55 45h1M55 46h1M52 48h1M55 48h1M52 49h1M54 50h1M52 51h1M54 51h2M52 52h2M55 52h1M53 53h1M53 54h1M53 55h1M53 56h1M53 57h1M53 58h1M53 59h2M54 60h1M54 61h2M54 62h1M53 63h1M55 64h1M50 65h2M55 65h1M51 66h1M54 66h1M50 67h3M56 67h1M50 68h3M55 68h1M50 69h2M54 69h1M50 70h4M56 70h1M50 71h3M55 71h1M50 72h3M54 72h1M32 73h2M50 73h5M32 74h2M50 74h4M55 74h1M30 75h4M51 75h5M31 76h3M52 76h3M31 77h2M30 78h1" />
<path stroke="#e88e63" d="M53 0h1M56 14h1M55 15h1M56 19h1M31 71h1M30 74h1" />
<path stroke="#e88f63" d="M53 1h1M33 65h1" />
<path stroke="#b51919" d="M73 1h1M74 6h1M75 8h1M75 15h1" />
<path stroke="#da875a" d="M50 2h1M51 10h1M51 11h1M49 12h2M59 38h1M58 51h1M59 67h1" />
<path stroke="#d38054" d="M47 3h1M47 5h1M47 6h1M47 7h1M46 9h1M46 10h2M47 11h1M43 12h1M46 13h1M44 14h1M46 14h1M44 15h1M46 15h1M48 15h1M44 16h2M45 17h1M48 17h1M45 18h1M47 18h1M45 19h1M45 20h1M47 20h2M45 21h1M45 22h1M48 22h1M42 26h1M45 26h1M45 30h1M44 31h1M44 32h1M42 33h1M44 33h1M42 34h1M43 35h1M45 38h1M43 40h1M42 41h1M41 42h2M40 43h1M41 44h1M44 44h1M39 47h1M43 47h1M41 48h1M43 48h1M41 49h1M43 49h2M41 50h1M43 50h3M43 51h2M41 52h1M43 52h1M43 54h1M41 55h1M43 55h2M43 56h1M41 57h1M43 57h1M45 57h1M39 58h1M41 58h1M39 59h1M41 59h1M39 60h1M41 60h1M43 60h1M39 61h1M41 61h1M39 62h1M41 62h1M44 62h2M37 63h1M43 63h1M37 64h1M44 67h1M66 67h1M38 68h1M38 69h2M65 69h1M38 70h3M66 70h1M37 71h5M65 71h2M37 72h3M44 72h1M66 72h1M68 72h1M40 73h1M66 73h2M64 74h1M67 74h2M67 75h3" />
<path stroke="#ce6044" d="M44 4h1" />
<path stroke="#c4573b" d="M44 5h1M66 62h1M66 63h1" />
<path stroke="#e99064" d="M53 6h1M53 7h2M51 8h3M51 9h3M54 10h1M54 11h1M51 12h2M51 13h1M54 13h1M52 14h3M52 15h3M52 16h1M51 20h2M51 21h2M55 21h1M51 22h1M55 22h2M51 23h1M53 23h1M53 24h1M57 25h1M51 26h3M57 26h1M51 27h3M56 27h1M51 28h3M56 28h1M51 29h3M56 29h2M52 30h2M56 30h2M51 31h1M56 31h2M52 32h4M53 33h2M51 34h2M51 35h3M52 36h2M51 37h3M52 38h2M52 39h1M51 40h2M51 41h2M51 42h4M51 43h1M53 43h2M52 44h3M53 45h1M52 46h3M53 47h2M51 48h1M53 48h2M51 49h1M53 49h1M55 49h1M51 50h1M53 50h1M56 50h1M51 51h1M53 51h1M56 51h1M51 52h1M52 53h1M54 53h1M51 54h2M54 54h1M51 55h2M54 55h2M51 56h2M54 56h2M50 57h1M52 57h1M54 57h1M51 58h2M54 58h3M51 59h2M55 59h2M53 60h1M55 60h1M50 61h2M53 61h1M50 62h1M52 62h2M55 62h1M50 63h1M52 63h1M54 63h2M51 64h4M52 65h3M52 66h2M55 66h1M53 67h3M53 68h2M56 68h1M33 69h1M52 69h2M55 69h2M32 70h1M54 70h2M32 71h2M53 71h2M56 71h1M31 72h3M53 72h1M55 72h2M31 73h1M55 73h2M54 74h1M56 74h1M29 77h2M31 78h1" />
<path stroke="#da5040" d="M54 6h1M57 19h1" />
<path stroke="#e89064" d="M55 8h1" />
<path stroke="#ad1212" d="M73 8h1" />
<path stroke="#ad1313" d="M74 9h1M74 14h1M74 16h1M74 17h1M73 30h1" />
<path stroke="#e6845e" d="M56 11h1M56 20h1" />
<path stroke="#d38154" d="M46 12h1M42 32h1M40 42h1M38 73h1" />
<path stroke="#e78860" d="M55 12h1" />
<path stroke="#d28054" d="M43 13h1M42 20h1" />
<path stroke="#da8659" d="M50 13h1M36 53h1M38 53h1M36 54h1" />
<path stroke="#e88d63" d="M55 13h2" />
<path stroke="#cd724c" d="M42 14h1M42 15h1M66 65h1" />
<path stroke="#d27d52" d="M43 14h1" />
<path stroke="#e88c62" d="M55 14h1" />
<path stroke="#a91010" d="M73 14h1M73 23h1" />
<path stroke="#d07a50" d="M43 15h1M43 16h1M41 24h1" />
<path stroke="#e68760" d="M56 15h1" />
<path stroke="#d8463b" d="M57 15h1M57 18h1M33 63h1M32 66h1M32 67h1M31 69h1" />
<path stroke="#cf754d" d="M42 16h1M42 17h1" />
<path stroke="#e88f64" d="M55 16h1M56 18h1M56 21h1M30 73h1" />
<path stroke="#e6865f" d="M56 16h1" />
<path stroke="#c03525" d="M57 16h1M58 21h1M58 23h1M58 24h1M58 25h1M58 30h1M59 32h1" />
<path stroke="#d28053" d="M43 17h1M42 28h1M42 29h1M42 30h1M41 33h1M41 34h1" />
<path stroke="#d87e53" d="M56 17h1M58 33h1" />
<path stroke="#bc291e" d="M57 17h1M59 30h1M59 31h1M39 35h1" />
<path stroke="#a90d0d" d="M68 17h1M41 21h1" />
<path stroke="#d17d52" d="M42 18h1" />
<path stroke="#d17b50" d="M43 18h1" />
<path stroke="#b31515" d="M73 18h1M74 20h1" />
<path stroke="#d27f53" d="M42 19h1M42 21h1M43 22h1M43 23h1M43 26h1M42 27h2M45 27h1M45 28h1M45 29h1M43 30h1M41 31h1M43 31h1M41 32h1M46 33h1M43 34h1M46 34h1M41 35h1M46 35h1M43 38h1M43 39h1M45 42h2M41 43h1M39 44h1M38 45h1M43 45h1M43 46h1M41 47h1M44 47h1M45 48h1M37 49h1M46 49h1M39 52h1M39 53h1M41 53h1M45 54h1M45 55h1M41 56h1M39 57h1M43 58h1M44 59h2M44 60h1M37 62h1M39 63h1M43 64h2M43 65h1M38 67h1M44 68h1M44 69h1M68 73h1" />
<path stroke="#d38053" d="M43 19h1M42 25h1M41 36h1M40 40h1M43 69h1M43 70h1" />
<path stroke="#d37f53" d="M43 20h1M43 21h1M42 24h2M45 24h1M43 28h1M43 29h1M41 30h1M43 36h1M45 36h1M43 37h1M46 37h1M41 38h1M41 40h1M45 40h1M45 41h2M44 43h1M46 43h1M43 44h1M39 45h1M41 45h1M41 46h1M44 46h2M45 47h1M39 50h1M39 51h1M41 51h1M43 53h2M41 54h1M44 56h1M38 57h1M44 57h1M44 58h1M43 61h1M38 62h1M39 64h1M41 64h1M38 65h1M38 66h1M43 66h2M43 71h1M43 72h1" />
<path stroke="#e28c60" d="M50 20h1M50 21h1M50 23h1M57 23h1M50 24h1M57 24h1M50 25h1M50 26h1M57 27h1M57 28h1M51 30h1M51 32h1M50 33h1M56 33h2M50 34h1M56 34h2M50 35h1M55 35h2M50 36h1M55 36h3M50 37h1M50 38h1M57 38h1M50 39h1M50 42h1M50 43h1M52 43h1M50 44h2M49 45h3M54 45h1M49 46h3M49 47h3M49 48h2M49 49h1M54 49h1M57 49h1M49 50h2M36 51h1M50 51h1M50 52h1M54 52h1M57 52h1M48 53h3M56 53h1M50 54h1M56 54h1M35 55h1M49 55h2M57 55h1M50 56h1M56 56h2M35 57h1M49 57h1M51 57h1M55 57h3M36 58h1M49 58h2M36 59h1M48 59h3M48 60h4M56 60h1M47 61h3M52 61h1M56 61h1M48 62h1M51 62h1M34 63h2M48 63h1M56 63h2M50 64h1M56 64h3M34 65h2M35 66h2M57 66h1M34 67h2M35 68h1M34 69h2M33 70h2M57 70h1M34 71h1M57 71h1M58 72h1M57 73h1M58 74h1M56 75h2M55 76h1M57 76h1" />
<path stroke="#dc5845" d="M57 20h1M58 28h1M30 72h1" />
<path stroke="#d04a3a" d="M57 21h1" />
<path stroke="#a70e0e" d="M73 21h1M68 25h1M73 26h1M40 28h1M72 30h1M39 32h1" />
<path stroke="#ac1010" d="M74 21h1" />
<path stroke="#b00c0c" d="M40 22h1" />
<path stroke="#d1704a" d="M41 22h1" />
<path stroke="#da8458" d="M42 22h1" />
<path stroke="#d88358" d="M46 22h1M37 66h1" />
<path stroke="#d87f53" d="M47 22h1M45 23h1M47 23h3M48 24h2M47 25h3M47 26h3M48 27h2M48 28h3M48 29h2M47 30h3M47 31h3M48 32h2M48 33h2M47 34h1M49 34h1M47 35h3M49 36h1M40 37h1M45 37h1M47 37h1M49 37h1M57 37h2M47 38h1M58 38h1M47 39h1M46 40h1M48 40h2M48 41h1M47 42h1M47 43h1M38 44h1M46 44h1M49 44h1M44 45h1M47 45h2M38 46h2M47 46h2M61 46h1M47 47h2M44 48h1M48 48h1M56 48h1M45 49h1M47 49h2M58 49h1M47 50h2M57 50h2M46 51h3M44 52h1M47 52h2M45 53h1M47 53h1M57 53h1M49 54h1M58 54h1M58 55h1M63 55h1M47 56h1M58 56h1M62 57h1M64 58h1M43 59h1M64 59h1M64 60h1M44 61h2M62 61h1M45 64h1M61 64h1M45 65h1M64 67h2M60 68h2M65 68h1M62 69h1M65 70h1M44 71h1M62 71h1M62 72h2M65 72h1M63 73h1" />
<path stroke="#e28c61" d="M50 22h1M52 23h1M57 32h1M55 37h2M56 38h1M53 39h1M53 40h1M56 40h2M56 41h3M57 42h1M55 44h3M56 45h2M55 47h2M58 47h1M57 48h1M52 50h1M51 53h1M55 53h1M55 54h1M58 57h1M58 58h1M47 59h1M52 60h1M36 61h1M47 62h1M56 62h1M58 62h1M49 63h1M48 64h2M48 65h2M57 65h2M48 66h3M56 66h1M47 67h3M57 67h1M34 68h1M47 68h3M57 68h1M48 69h2M57 69h2M35 70h1M47 70h3M47 71h3M58 71h1M34 72h2M47 72h3M57 72h1M34 73h1M47 73h3M58 73h1M34 74h1M49 74h1M57 74h1M34 75h2M49 75h2M34 76h1M56 76h1M33 77h1" />
<path stroke="#e1895f" d="M57 22h1M34 61h1" />
<path stroke="#c33e2b" d="M58 22h1M65 56h1" />
<path stroke="#b20d0d" d="M40 23h1" />
<path stroke="#cd704a" d="M41 23h1" />
<path stroke="#d27e52" d="M42 23h1" />
<path stroke="#d87f54" d="M46 23h1M44 24h1M46 24h1M50 30h1M50 31h1M46 32h1M50 32h1M47 33h1M46 36h1M48 36h1M48 37h1M57 39h4M44 40h1M58 40h3M59 41h2M56 42h1M60 42h1M57 43h2M58 44h3M46 45h1M58 45h3M56 46h3M60 46h1M57 47h1M59 47h3M46 48h1M58 48h5M59 49h2M59 50h3M59 51h3M46 52h1M59 52h2M62 52h1M59 53h1M47 54h1M59 54h1M61 54h1M46 55h2M59 55h2M62 55h1M46 56h1M60 56h1M46 57h2M61 57h1M46 58h2M46 59h1M61 59h1M63 59h1M46 60h1M64 61h1M42 62h1M46 62h1M62 62h1M46 63h2M62 63h1M65 63h1M46 64h2M62 64h1M46 65h2M63 65h1M45 66h2M62 67h1M45 68h2M45 69h2M63 69h1M66 69h1M45 70h2M64 70h1M60 71h2M63 71h2M60 72h1M65 74h1" />
<path stroke="#a80e0e" d="M40 24h1M39 28h1M40 29h1M70 29h1M39 31h1M39 33h1" />
<path stroke="#d77e52" d="M47 24h1M47 32h1M40 38h1M39 43h1M45 51h1" />
<path stroke="#e28c5f" d="M51 24h1M57 35h1" />
<path stroke="#aa0d0d" d="M40 25h1" />
<path stroke="#d16f49" d="M41 25h1" />
<path stroke="#d37e52" d="M43 25h1M41 29h1M41 39h1M41 41h1M46 46h1M41 63h1M39 65h1" />
<path stroke="#d47f53" d="M45 25h1M45 39h2M44 54h1M45 56h1M45 60h1M44 70h1" />
<path stroke="#d37f54" d="M46 25h1M46 28h1M43 32h1M45 32h1M45 33h1M42 37h1M40 46h1M46 47h1M42 49h1M42 50h1M40 52h1M40 59h1M40 60h1M42 64h1M42 68h1" />
<path stroke="#e28d60" d="M51 25h1M51 33h1M53 34h1M51 38h1M56 52h1M58 52h1M49 62h1M34 64h2M34 66h1" />
<path stroke="#ae0c0c" d="M40 26h1M40 30h1" />
<path stroke="#d1794f" d="M41 26h1" />
<path stroke="#d37e53" d="M46 26h1M46 30h1M40 50h1M40 51h1M41 73h1" />
<path stroke="#cd4035" d="M58 26h1M58 27h1M36 49h1M35 53h1" />
<path stroke="#a90c0c" d="M40 27h1" />
<path stroke="#d17950" d="M41 27h1" />
<path stroke="#d47f54" d="M46 27h1M43 68h1" />
<path stroke="#d77f53" d="M47 27h1M47 29h1M47 36h1M47 40h1M47 41h1M40 44h1M45 44h1M44 63h1" />
<path stroke="#d27e53" d="M41 28h1M39 40h1M39 66h1M67 68h1" />
<path stroke="#d67e52" d="M47 28h1M45 45h1M47 48h1M44 65h1" />
<path stroke="#ab0e0e" d="M39 29h1" />
<path stroke="#d27f54" d="M46 29h1M46 31h1M42 39h1M44 41h1M45 43h1M40 48h1M46 50h1M42 51h1M42 52h1M40 53h1M46 54h1M40 58h1M40 61h1M40 62h1M42 63h1M41 65h1M41 66h1M39 67h1M43 67h1M39 68h1M41 69h1M41 70h2M42 71h1M42 72h1M69 74h1" />
<path stroke="#de5f49" d="M58 29h1M30 71h1" />
<path stroke="#b7271c" d="M40 31h1" />
<path stroke="#d27f52" d="M42 31h1M41 37h1M46 38h1M38 58h1" />
<path stroke="#e99163" d="M54 31h1M52 47h1" />
<path stroke="#d3714b" d="M58 31h1M65 61h1" />
<path stroke="#ad1d17" d="M40 32h1" />
<path stroke="#e18b60" d="M58 32h1" />
<path stroke="#d0754d" d="M40 33h1" />
<path stroke="#e99164" d="M52 33h1M55 33h1M51 39h1M52 45h1M55 50h1M51 63h1M33 67h1M33 68h1M31 74h1M30 76h1" />
<path stroke="#b81d17" d="M39 34h1M38 39h1" />
<path stroke="#d4784e" d="M40 34h1" />
<path stroke="#d88053" d="M48 34h1M58 36h1M57 51h1" />
<path stroke="#d87d51" d="M58 34h1" />
<path stroke="#d67e51" d="M40 35h1M39 42h1" />
<path stroke="#d4744c" d="M58 35h1" />
<path stroke="#c65c3e" d="M39 36h1" />
<path stroke="#d48155" d="M40 36h1" />
<path stroke="#d26b46" d="M59 36h1" />
<path stroke="#d47e52" d="M39 37h1M39 41h1" />
<path stroke="#cf6442" d="M59 37h1" />
<path stroke="#d5754d" d="M39 38h1" />
<path stroke="#d77c51" d="M39 39h1M38 42h1" />
<path stroke="#d67f52" d="M40 39h1" />
<path stroke="#ce6141" d="M38 40h1M37 45h1" />
<path stroke="#d77b51" d="M38 41h1M37 46h1M37 47h1" />
<path stroke="#d28052" d="M40 41h1" />
<path stroke="#d67b50" d="M38 43h1" />
<path stroke="#bc2a24" d="M37 44h1M65 59h1" />
<path stroke="#d87f52" d="M47 44h1" />
<path stroke="#cb573b" d="M61 44h1M61 45h1M65 60h1" />
<path stroke="#d88357" d="M38 48h1" />
<path stroke="#d06547" d="M36 50h1" />
<path stroke="#d9845a" d="M37 51h1" />
<path stroke="#c9513b" d="M63 51h1" />
<path stroke="#e0845c" d="M36 52h1" />
<path stroke="#d57e52" d="M45 52h1M43 62h1" />
<path stroke="#d4734e" d="M63 52h1" />
<path stroke="#d77e53" d="M46 53h1" />
<path stroke="#d77e55" d="M63 53h1" />
<path stroke="#ca352f" d="M35 54h1" />
<path stroke="#d58256" d="M39 54h1M37 69h1M35 73h1M37 74h2" />
<path stroke="#d67c54" d="M63 54h1" />
<path stroke="#dc7855" d="M36 55h1" />
<path stroke="#d78256" d="M39 55h1M38 56h1M45 58h1" />
<path stroke="#d67b54" d="M35 56h1" />
<path stroke="#d88056" d="M36 56h1M35 60h1" />
<path stroke="#d68054" d="M39 56h1" />
<path stroke="#d36f4c" d="M64 56h1" />
<path stroke="#da8559" d="M64 57h1" />
<path stroke="#c9513a" d="M65 57h1" />
<path stroke="#e0865d" d="M35 58h1M35 59h1M35 61h1" />
<path stroke="#cb583f" d="M65 58h1" />
<path stroke="#df825b" d="M34 59h1" />
<path stroke="#b22a1f" d="M66 59h1M66 64h1M68 68h1M69 72h1" />
<path stroke="#db7252" d="M34 60h1" />
<path stroke="#d98458" d="M38 60h1M37 61h1" />
<path stroke="#da875b" d="M57 60h1" />
<path stroke="#d58054" d="M38 61h1" />
<path stroke="#ad1e18" d="M67 61h1" />
<path stroke="#e18a5f" d="M34 62h1" />
<path stroke="#de7f59" d="M35 62h1" />
<path stroke="#d38153" d="M38 63h1" />
<path stroke="#de6048" d="M33 64h1" />
<path stroke="#e28d61" d="M36 64h1" />
<path stroke="#e28d5f" d="M33 66h1" />
<path stroke="#d17b51" d="M66 66h1M67 69h1M68 70h1M68 71h1M69 73h1" />
<path stroke="#d48055" d="M36 67h1M36 68h1" />
<path stroke="#d88256" d="M37 67h1" />
<path stroke="#d67e53" d="M42 67h1M45 67h1" />
<path stroke="#e78b61" d="M32 68h1" />
<path stroke="#d58155" d="M37 68h1" />
<path stroke="#cf764e" d="M66 68h1" />
<path stroke="#e89063" d="M32 69h1" />
<path stroke="#d58257" d="M36 69h1" />
<path stroke="#cf744d" d="M68 69h1" />
<path stroke="#e27555" d="M31 70h1" />
<path stroke="#d88459" d="M36 70h1" />
<path stroke="#d98559" d="M36 72h1M36 73h1" />
<path stroke="#9d8c5f" d="M42 73h5M41 74h8M59 74h3M38 75h1M41 75h8M58 75h5M65 75h2M35 76h1M40 76h5M47 76h5M60 76h2M65 76h2M34 77h1M40 77h2M47 77h10M69 77h1M33 78h1M41 78h1M49 78h8M58 78h1M28 79h3M41 79h1M55 79h4M29 80h2M34 80h1" />
<path stroke="#9d8c5e" d="M61 73h2M40 74h1M62 74h2M36 75h2M39 75h2M63 75h2M36 76h4M58 76h2M62 76h3M67 76h2M36 77h2M57 77h1M59 77h1M63 77h1M70 77h1M29 78h1M32 78h1M34 78h2M57 78h1M59 78h1M63 78h1M70 78h1M31 79h2M34 79h2M59 79h1M71 79h1M32 80h1" />
<path stroke="#3e2723" d="M72 73h2M90 73h4M16 74h3M71 74h4M88 74h7M97 74h3M1 75h3M15 75h9M70 75h5M87 75h13M0 76h5M14 76h12M73 76h3M83 76h1M85 76h8M94 76h5M0 77h6M10 77h2M13 77h14M74 77h4M81 77h11M0 78h7M8 78h9M25 78h4M76 78h5M82 78h6M89 78h1M4 79h3M8 79h5M16 79h1M26 79h2M78 79h3M82 79h2M90 79h2M8 80h1M16 80h1M27 80h1M72 80h1M82 80h1M7 81h2M16 81h1M26 81h1M82 81h1M6 82h2M15 82h1M22 95h1M33 95h1M51 95h1M62 95h1M70 95h1M82 95h1M8 96h1M22 96h1M33 96h1M42 96h1M50 96h1M62 96h2M70 96h1M82 96h1M94 96h2M9 97h1M22 97h1M33 97h1M42 97h1M50 97h1M62 97h1M71 97h1M82 97h1M95 97h1M9 98h1M22 98h1M33 98h1M42 98h1M50 98h1M62 98h1M71 98h1M82 98h1M95 98h1M9 99h1M22 99h1M33 99h1M42 99h1M50 99h2M62 99h1M72 99h1M82 99h1M95 99h1M10 100h2M33 100h1M42 100h1M51 100h1M72 100h1M82 100h1M0 101h1M25 101h1M27 101h2M33 101h1M42 101h1M52 101h1M64 101h1M70 101h1M73 101h1M82 101h1M92 101h1M0 102h1M3 102h1M33 102h1M35 102h1M38 102h1M64 102h1M36 103h1M38 103h1M64 103h1M71 104h1M60 105h1M88 107h1" />
<path stroke="#d88458" d="M35 74h1" />
<path stroke="#a59364" d="M45 76h2M38 77h1M42 77h5M61 77h1M66 77h1M42 78h6M61 78h1M66 78h2M37 79h1M39 79h1M43 79h2M46 79h1M52 79h2M63 79h1M28 80h1M59 80h2M63 80h1M69 80h1M27 81h4" />
<path stroke="#9b8a5d" d="M69 76h1" />
<path stroke="#907f57" d="M70 76h1" />
<path stroke="#4e342e" d="M71 76h2M93 76h1M71 77h3M92 77h7M17 78h8M72 78h4M81 78h1M90 78h9M0 79h4M13 79h2M17 79h9M72 79h1M74 79h4M81 79h1M84 79h5M92 79h2M98 79h1M0 80h5M9 80h6M17 80h1M23 80h2M77 80h2M83 80h7M91 80h1M0 81h5M6 81h1M9 81h5M17 81h1M23 81h2M72 81h1M83 81h3M92 81h1M0 82h5M8 82h1M16 82h1M26 82h1M73 82h1M83 82h1M93 82h1M0 83h2M5 83h2M14 83h2M26 83h1M74 83h1M83 83h1M94 83h1M0 84h1M5 84h1M13 84h2M26 84h1M74 84h1M84 84h1M95 84h2M4 85h1M13 85h1M26 85h1M74 85h1M85 85h1M97 85h1M3 86h1M12 86h2M25 86h1M75 86h1M86 86h1M98 86h2M3 87h1M12 87h1M25 87h1M68 87h1M76 87h1M87 87h1M99 87h1M3 88h1M11 88h2M25 88h1M68 88h1M77 88h1M88 88h1M11 89h1M24 89h1M68 89h1M78 89h1M89 89h1M1 90h1M11 90h1M24 90h1M33 90h1M69 90h1M78 90h1M90 90h1M0 91h2M10 91h2M23 91h1M33 91h1M61 91h1M69 91h1M79 91h1M91 91h1M0 92h1M9 92h3M23 92h1M33 92h1M42 92h1M50 92h1M61 92h1M70 92h1M80 92h1M92 92h1M9 93h2M22 93h2M33 93h1M42 93h1M50 93h1M61 93h1M70 93h1M80 93h1M92 93h2M7 94h4M22 94h1M33 94h1M50 94h1M62 94h1M70 94h1M81 94h1M93 94h2M0 95h3M4 95h17M26 95h7M34 95h17M52 95h2M63 95h6M71 95h7M81 95h1M83 95h1M93 95h4M0 96h8M9 96h13M23 96h10M34 96h8M43 96h7M51 96h4M56 96h4M61 96h1M64 96h5M71 96h11M83 96h11M96 96h4M0 97h9M10 97h12M23 97h10M34 97h8M43 97h7M51 97h11M63 97h6M72 97h10M83 97h12M96 97h4M0 98h9M10 98h12M23 98h10M34 98h8M43 98h7M51 98h11M63 98h7M72 98h10M83 98h12M96 98h4M0 99h9M10 99h12M23 99h10M34 99h8M43 99h7M52 99h10M63 99h7M73 99h9M83 99h12M96 99h4M0 100h9M12 100h10M23 100h10M34 100h8M43 100h8M52 100h3M57 100h1M59 100h1M61 100h1M63 100h8M75 100h1M79 100h3M83 100h3M87 100h1M90 100h1M96 100h1M1 101h4M7 101h1M12 101h6M30 101h1M34 101h3M38 101h4M45 101h5M81 101h1M11 102h1" />
<path stroke="#5d4037" d="M99 76h1M99 77h1M88 78h1M99 78h1M7 79h1M15 79h1M73 79h1M89 79h1M94 79h4M99 79h1M5 80h3M15 80h1M18 80h5M25 80h2M73 80h4M79 80h3M92 80h8M5 81h1M14 81h2M18 81h5M25 81h1M73 81h9M86 81h4M93 81h7M5 82h1M9 82h4M17 82h8M74 82h7M84 82h7M94 82h6M2 83h2M7 83h5M16 83h9M75 83h6M84 83h8M95 83h5M1 84h3M6 84h5M15 84h10M72 84h1M75 84h7M85 84h8M97 84h3M0 85h2M5 85h6M14 85h9M27 85h1M71 85h2M75 85h8M86 85h8M98 85h2M0 86h2M4 86h7M14 86h9M26 86h3M70 86h3M76 86h8M87 86h9M0 87h2M4 87h6M13 87h11M26 87h3M69 87h5M77 87h8M88 87h9M0 88h2M4 88h6M13 88h10M26 88h4M69 88h6M78 88h8M89 88h11M3 89h7M12 89h10M25 89h6M65 89h1M69 89h7M79 89h8M90 89h10M2 90h8M12 90h10M25 90h7M65 90h1M70 90h7M79 90h9M91 90h9M2 91h6M12 91h10M24 91h8M34 91h6M58 91h1M62 91h6M70 91h7M80 91h9M92 91h8M1 92h7M12 92h8M24 92h8M34 92h7M43 92h6M51 92h9M62 92h6M71 92h7M81 92h9M93 92h7M0 93h6M11 93h9M24 93h8M34 93h7M43 93h6M51 93h9M62 93h7M71 93h8M81 93h10M94 93h6M0 94h6M11 94h10M23 94h9M34 94h7M43 94h6M51 94h9M63 94h6M71 94h8M82 94h9M95 94h5M3 95h1M23 95h3M54 95h8M78 95h3M84 95h8M97 95h3M55 96h1M60 96h1M22 100h1" />
<path stroke="#9d8d5e" d="M35 77h1" />
<path stroke="#a59463" d="M39 77h1M61 80h1M32 81h1" />
<path stroke="#9d8d5d" d="M58 77h1" />
<path stroke="#a59363" d="M60 77h1M64 77h2M36 78h4M60 78h1M64 78h2M36 79h1M38 79h1M60 79h2M68 79h1M31 80h1M35 80h1M31 81h1" />
<path stroke="#ac9969" d="M62 77h1M40 78h1M48 78h1M62 78h1M33 79h1M40 79h1M65 79h3M70 79h1M67 80h2M70 80h2M66 81h5M27 82h2M68 82h3M71 83h1" />
<path stroke="#ac9968" d="M67 77h2M68 78h2M64 79h1M69 79h1M33 80h1M64 80h3M65 81h1" />
<path stroke="#a18f61" d="M71 78h1" />
<path stroke="#cebf7e" d="M42 79h1M45 79h1M47 79h1M49 79h3M37 80h1M42 80h2M49 80h1M52 80h4M58 80h1M35 81h2M41 81h1M49 81h1M41 82h1M49 82h1M57 82h1M41 83h1M49 83h1M57 83h1M65 83h1M34 84h1M41 84h1M49 84h1M58 84h1M65 84h2M34 85h1M41 85h1M50 85h1M58 85h1M66 85h1M34 86h1M42 86h1M50 86h1M58 86h1M67 86h1M33 87h2M42 87h1M50 87h1M59 87h1M33 88h1M42 88h1M50 88h1M59 88h1M33 89h1M42 89h1M50 89h1M59 89h2M42 90h1M50 90h1M60 90h1M42 91h1M50 91h1" />
<path stroke="#d1c281" d="M48 79h1M40 80h1M44 80h4M50 80h2M56 80h1M38 81h2M42 81h6M50 81h6M58 81h4M29 82h2M32 82h1M35 82h2M39 82h1M42 82h6M50 82h6M58 82h5M65 82h1M27 83h6M36 83h1M39 83h1M42 83h6M50 83h6M58 83h5M68 83h3M27 84h6M36 84h1M39 84h1M42 84h6M50 84h6M59 84h5M67 84h1M69 84h1M28 85h5M35 85h5M42 85h6M51 85h6M59 85h5M67 85h4M29 86h3M35 86h5M43 86h5M51 86h6M59 86h6M68 86h2M29 87h3M35 87h6M43 87h5M51 87h6M60 87h6M30 88h2M34 88h7M43 88h5M51 88h7M60 88h6M31 89h1M34 89h7M43 89h5M51 89h7M61 89h4M34 90h7M43 90h5M51 90h7M61 90h4M40 91h1M43 91h6M51 91h7" />
<path stroke="#c9bb7b" d="M54 79h1M41 80h1M57 80h1M34 81h1M57 81h1M34 82h1" />
<path stroke="#b59f6e" d="M62 79h1M62 80h1M71 81h1M71 82h1M66 89h1" />
<path stroke="#cebf7d" d="M36 80h1M38 80h2M37 81h1M64 81h1M64 82h1M34 83h1" />
<path stroke="#d6c583" d="M48 80h1M40 81h1M48 81h1M56 81h1M62 81h2M33 82h1M40 82h1M48 82h1M56 82h1M63 82h1M33 83h1M40 83h1M48 83h1M56 83h1M63 83h2M33 84h1M40 84h1M48 84h1M56 84h2M64 84h1M33 85h1M40 85h1M48 85h2M57 85h1M64 85h2M32 86h2M40 86h2M48 86h2M57 86h1M65 86h2M32 87h1M41 87h1M48 87h2M57 87h2M66 87h2M32 88h1M41 88h1M48 88h2M58 88h1M66 88h2M32 89h1M41 89h1M48 89h2M58 89h1M41 90h1M48 90h2M58 90h2M41 91h1M49 91h1" />
<path stroke="#6d4c41" d="M90 80h1M90 81h2M13 82h2M25 82h1M72 82h1M81 82h2M91 82h2M4 83h1M12 83h2M25 83h1M72 83h2M81 83h2M92 83h2M4 84h1M11 84h2M25 84h1M73 84h1M82 84h2M93 84h2M2 85h2M11 85h2M23 85h3M73 85h1M83 85h2M94 85h3M2 86h1M11 86h1M23 86h2M73 86h2M84 86h2M96 86h2M2 87h1M10 87h2M24 87h1M74 87h2M85 87h2M97 87h2M2 88h1M10 88h1M23 88h2M75 88h2M86 88h2M0 89h3M10 89h1M22 89h2M67 89h1M76 89h2M87 89h2M0 90h1M10 90h1M22 90h2M32 90h1M66 90h3M77 90h1M88 90h2M8 91h2M22 91h1M32 91h1M59 91h2M68 91h1M77 91h2M89 91h2M8 92h1M20 92h3M32 92h1M41 92h1M49 92h1M60 92h1M68 92h2M78 92h2M90 92h2M6 93h3M20 93h2M32 93h1M41 93h1M49 93h1M60 93h1M69 93h1M79 93h1M91 93h1M6 94h1M21 94h1M32 94h1M41 94h2M49 94h1M60 94h2M69 94h1M79 94h2M91 94h2M21 95h1M69 95h1M92 95h1M69 96h1M69 97h2M70 98h1M70 99h2M71 100h1" />
<path stroke="#d1c280" d="M33 81h1M31 82h1M38 82h1M66 82h1M35 83h1M37 83h2M66 83h2M37 84h2M68 84h1M70 84h1" />
<path stroke="#d1c380" d="M37 82h1M35 84h1" />
<path stroke="#d1c381" d="M67 82h1" />
<path stroke="#ab9767" d="M71 84h1" />
<path stroke="#331d19" d="M9 100h1M55 100h2M58 100h1M60 100h1M62 100h1M73 100h2M76 100h3M86 100h1M88 100h2M91 100h5M97 100h3M5 101h2M8 101h4M18 101h7M26 101h1M29 101h1M31 101h2M37 101h1M43 101h2M50 101h2M53 101h11M65 101h5M71 101h2M74 101h7M83 101h9M93 101h7M1 102h2M4 102h7M12 102h21M34 102h1M36 102h2M39 102h25M65 102h35M0 103h36M37 103h1M39 103h25M65 103h35M0 104h71M72 104h28M0 105h60M61 105h39M0 106h100M0 107h88M89 107h11M0 108h100M0 109h100M0 110h100M0 111h100M0 112h100M0 113h100M0 114h100M0 115h100M0 116h100M0 117h100M0 118h100M0 119h100" />
</svg>