<svg xmlns="http://www.w3.org/2000/svg" viewBox="0 -0.5 45 43" shape-rendering="crispEdges">
<metadata>Made with Pixels to Svg https://codepen.io/shshaw/pen/XbxvNj</metadata>
<path stroke="#000000" d="M12 8h2M17 8h2M11 9h1M14 9h1M16 9h1M19 9h2M11 10h1M15 10h2M21 10h1M10 11h1M15 11h1M22 11h2M10 12h1M14 12h1M24 12h1M11 13h1M14 13h2M25 13h2M11 14h1M15 14h2M27 14h1M7 15h2M10 15h1M16 15h1M28 15h2M6 16h1M8 16h2M12 16h2M15 16h2M30 16h1M5 17h1M11 17h1M13 17h3M31 17h1M5 18h1M11 18h1M32 18h2M4 19h1M10 19h1M34 19h1M5 20h2M11 20h1M35 20h2M7 21h1M12 21h2M37 21h1M8 22h2M14 22h1M38 22h2M10 23h1M15 23h2M40 23h1M11 24h1M17 24h1M40 24h1M12 25h2M18 25h2M39 25h2M14 26h1M20 26h1M36 26h2M39 26h1M15 27h2M21 27h1M35 27h2M38 27h2M17 28h1M22 28h2M34 28h2M18 29h2M24 29h1M34 29h1M20 30h1M25 30h2M34 30h1M21 31h1M27 31h1M35 31h1M22 32h2M28 32h2M34 32h2M24 33h1M29 33h2M34 33h1M25 34h2M28 34h2M31 34h1M33 34h2M27 35h2M32 35h2" />
<path stroke="#efa54a" d="M12 9h2M12 10h3M11 11h4M11 12h3M12 13h2M12 14h3M11 15h5M7 16h1M10 16h2M14 16h1M6 17h5M6 18h5M5 19h5M7 20h4M8 21h4M10 22h4M11 23h4M12 24h5M14 25h4M15 26h5M17 27h4M18 28h4M20 29h4M21 30h4M22 31h5M24 32h4M25 33h4M27 34h1" />
<path stroke="#7e8a58" d="M17 9h2M17 10h4M16 11h6M15 12h9M16 13h4M21 13h4M17 14h2M21 14h6M17 15h2M20 15h3M24 15h4M17 16h1M20 16h4M26 16h4M12 17h1M16 17h2M19 17h6M27 17h4M12 18h5M19 18h3M23 18h3M28 18h4M11 19h5M18 19h4M24 19h10M12 20h4M17 20h6M25 20h10M14 21h2M17 21h3M21 21h3M26 21h11M15 22h6M22 22h4M27 22h6M34 22h4M17 23h5M24 23h2M28 23h4M34 23h6M18 24h5M25 24h7M33 24h7M20 25h4M26 25h5M33 25h6M21 26h4M27 26h4M32 26h4M38 26h1M22 27h4M27 27h3M32 27h3M24 28h6M31 28h3M25 29h4M31 29h3M27 30h7M28 31h7M30 32h4M31 33h3M32 34h1" />
<path stroke="#ffffff" d="M20 13h1M19 14h2M19 15h1M23 15h1M18 16h2M24 16h2M18 17h1M25 17h2M17 18h2M22 18h1M26 18h2M16 19h2M22 19h2M16 20h1M23 20h2M16 21h1M20 21h1M24 21h2M21 22h1M26 22h1M33 22h1M22 23h2M26 23h2M32 23h2M23 24h2M32 24h1M24 25h2M31 25h2M25 26h2M31 26h1M26 27h1M30 27h2M30 28h1M29 29h2" />
</svg>