<svg xmlns="http://www.w3.org/2000/svg" viewBox="0 -0.5 100 43" shape-rendering="crispEdges">
<metadata>Made with Pixels to Svg https://codepen.io/shshaw/pen/XbxvNj</metadata>
<path stroke="#10122b" d="M6 1h92M6 2h92M6 3h92M6 4h92M6 5h88M2 6h92M2 7h92M2 8h92M2 9h96M6 10h92M6 11h92M6 12h92M6 13h92M2 14h92M2 15h92M2 16h92M2 17h92M6 18h92M6 19h92M6 20h92M6 21h92M2 22h92M2 23h92M2 24h92M2 25h92M6 26h92M6 27h92M6 28h92M6 29h92M2 30h92M2 31h92M2 32h92M2 33h92M6 34h92M6 35h92M6 36h92M6 37h92M2 38h92M2 39h92M2 40h92M2 41h92" />
</svg>