<svg xmlns="http://www.w3.org/2000/svg" viewBox="0 -0.5 38 37" shape-rendering="crispEdges">
<metadata>Made with Pixels to Svg https://codepen.io/shshaw/pen/XbxvNj</metadata>
<path stroke="#000000" d="M10 4h2M17 4h2M24 4h2M6 5h27M6 6h1M10 6h2M17 6h2M24 6h2M32 6h1M5 7h2M32 7h1M5 8h1M32 8h1M5 9h28M5 10h1M32 10h1M5 11h1M32 11h1M5 12h1M32 12h1M5 13h1M32 13h1M5 14h1M32 14h1M5 15h1M32 15h1M5 16h1M13 16h4M19 16h2M32 16h1M5 17h1M16 17h1M20 17h1M32 17h1M5 18h1M16 18h1M20 18h1M32 18h1M5 19h1M16 19h1M20 19h1M32 19h1M5 20h1M12 20h5M20 20h1M32 20h1M5 21h1M16 21h1M20 21h1M32 21h1M5 22h1M16 22h1M20 22h1M32 22h1M5 23h1M16 23h1M20 23h1M32 23h1M5 24h1M12 24h5M20 24h1M32 24h1M5 25h1M32 25h1M5 26h1M32 26h1M5 27h1M26 27h7M5 28h1M26 28h1M31 28h2M5 29h1M26 29h1M30 29h2M5 30h1M26 30h1M29 30h2M5 31h1M26 31h1M28 31h2M5 32h1M26 32h3M5 33h1M26 33h2M5 34h22" />
<path stroke="#cf4e3d" d="M7 6h3M12 6h5M19 6h5M26 6h6M7 7h25M6 8h26" />
<path stroke="#f1edd8" d="M6 10h26M6 11h26M6 12h26M6 13h26M6 14h26M6 15h26M6 16h7M17 16h2M21 16h11M6 17h10M17 17h3M21 17h11M6 18h10M17 18h3M21 18h11M6 19h10M17 19h3M21 19h11M6 20h6M17 20h3M21 20h11M6 21h10M17 21h3M21 21h11M6 22h10M17 22h3M21 22h11M6 23h10M17 23h3M21 23h11M6 24h6M17 24h3M21 24h11M6 25h26M6 26h26M6 27h20M6 28h20M27 28h4M6 29h20M27 29h3M6 30h20M27 30h2M6 31h20M27 31h1M6 32h20M6 33h20" />
</svg>